# xmcd
# 
# Track frame offsets:
#     182
#     16207
#     51935
#     74552
#     96500
#     116342
#     150185
#     191002
#     209010
#     234070
#     260852
#     320397
# 
# Disc length: 4592
# 
# Revision: 3
# Processed by: cddbd v1.5.2PL0 Copyright (c) Steve Scherf et al.
# Submitted via: fre:ac v1.0.27
# 
DISCID=a511ee0c
DTITLE=Various Artist - Sundance: The Best of Stunt and Sundance Records vol. 5
DYEAR=2002
DGENRE=Jazz
TTITLE0=Jazzpolice - Music Spoken Here
TTITLE1=Thomas Hass - Neal's Notice
TTITLE2=Lars Møller - Mass
TTITLE3=Bagdad Dagblad - Fed Doed
TTITLE4=Bombay Hotel - Point of View
TTITLE5=Claus Waidløw Quartet - Claustrofobia
TTITLE6=Maj-Britt Kramer, Andy Sheppard - Often I am Happy
TTITLE7=Alpha Centauri - Ten Minutes Later
TTITLE8=JUEZ - Opening Night
TTITLE9=Erik Ørum von Spreckeisen - I'll See You
TTITLE10=Alex Riel Quartet - Blank for Now
TTITLE11=Væring, Stenson, Vinding, Riel - What If
EXTD=
EXTT0=
EXTT1=
EXTT2=
EXTT3=
EXTT4=
EXTT5=
EXTT6=
EXTT7=
EXTT8=
EXTT9=
EXTT10=
EXTT11=
PLAYORDER=
